<!-- source: https://pixabay.com/pl/vectors/pizza-minimalistyczny-jedzenie-2833748/ -->

<?xml version='1.0' encoding='utf-8'?>
<svg xmlns="http://www.w3.org/2000/svg" version="1.1" id="Layer_1" x="0px" y="0px" viewBox="0 0 1080 1080" style="enable-background:new 0 0 1080 1080;"> <style type="text/css"> .st0{stroke:#000000;stroke-width:0.25;stroke-miterlimit:10;} .st1{fill:#FFFFFF;stroke:#000000;stroke-width:0.25;stroke-miterlimit:10;} </style> <g id="gecUjM.tif"> <g> <path class="st0" d="M568.8,1074c-19.5,0-39.1,0-58.6,0c-1.4-0.3-2.8-0.7-4.3-0.8c-31-2.1-61.8-6.1-91.9-14.1 c-19.9-5.3-40-10.6-59.2-17.9c-21.9-8.4-43.1-18.7-64.2-29c-23.5-11.5-45.3-25.9-66.3-41.5c-24.2-17.9-46.8-37.6-67.7-59.3 c-21.8-22.6-41.6-46.7-59.1-72.7c-17.3-25.8-32.2-52.9-44.9-81.3c-14.1-31.5-25.3-64.1-32.5-97.8C14.9,635,10.9,610,8.6,584.9 c-3.6-38.7-3-77.6,3-116c3.6-23.2,8.5-46.4,14.2-69.2c4.6-18.4,10.8-36.4,17.6-54.1c11-28.8,25-56.3,41-82.7 c15.5-25.6,33-49.7,52.7-72.2c24.3-27.8,51-53,80.5-75.4c31.2-23.6,64.4-43.7,99.8-60.1c30.8-14.3,62.8-25.9,96-33.1 c20.9-4.5,42.1-7.9,63.3-11.3c11-1.8,22.3-2.5,33.4-3.7c19.5,0,39.1,0,58.6,0c1.4,0.3,2.8,0.7,4.3,0.8c31,2.1,61.8,6.1,91.9,14.1 c19.9,5.3,40,10.6,59.2,17.9c21.9,8.4,43.1,18.7,64.2,29c23.5,11.5,45.3,25.9,66.3,41.5c24.2,17.9,46.8,37.6,67.7,59.3 c21.8,22.6,41.6,46.7,59.1,72.7c17.3,25.8,32.2,52.9,44.9,81.3c14.1,31.5,25.3,64.1,32.5,97.8c5.2,24.6,9.2,49.7,11.5,74.7 c3.6,38.7,3,77.6-3,116c-3.6,23.2-8.5,46.4-14.2,69.2c-4.6,18.4-10.8,36.4-17.6,54.1c-11,28.8-25,56.3-41,82.7 c-15.5,25.6-33,49.7-52.7,72.2c-24.3,27.8-51,53-80.5,75.4c-31.2,23.6-64.4,43.7-99.8,60.1c-30.8,14.3-62.8,25.9-96,33.1 c-20.9,4.5-42.1,7.9-63.3,11.3C591.2,1072.1,580,1072.8,568.8,1074z M46.6,548.6c1.7,83.3,22.3,160.6,62.3,232.6 c21.6,38.9,48.1,74.1,78.4,104.4c112.9-112.6,225.3-224.6,338-337C365.8,548.6,206.6,548.6,46.6,548.6z M535.8,519.3 c0.6-0.2,1.1-0.4,1.7-0.6c0-3.5,0-7.1,0-10.6c0-150.4,0-300.8,0-451.2c0-1.5-0.1-2.9,0-4.4c0.3-4.3-1.1-6.2-5.8-5.8 c-14.8,1-29.6,1.1-44.3,2.6c-30.6,3.1-60.7,9.3-90.1,18.3c-72.9,22.2-137.2,59.1-193.1,111c-3.3,3.1-3.8,5.1-0.3,8.6 c12.4,12,24.5,24.4,36.6,36.6c53.5,53.6,107,107.1,160.5,160.7c36.9,37,73.8,74,110.7,111C519.6,503.4,527.7,511.3,535.8,519.3z M897.6,879.7c47.4-49.8,83.1-107.8,106.4-173.3c18.1-50.8,27.7-103.2,28.3-157.7c-155.6,0-310.7,0-466.4,0 C676.8,659.4,787,769.3,897.6,879.7z M536.8,1034.6c0-154.7,0-308.5,0-463.2c-1.6,1.2-2.4,1.6-3,2.3c-7.3,7.2-14.5,14.4-21.8,21.7 c-29,29-57.9,57.9-86.9,86.9c-42.5,42.6-85,85.2-127.5,127.8c-29.6,29.7-59.2,59.5-89,89.1c-3,3-3.3,4.9,0.2,7.7 c16.3,12.9,32,26.5,48.8,38.8c24,17.6,50.1,31.9,77.2,44.3c30.5,14,62.1,25.1,94.9,32c22.7,4.8,45.8,7.8,68.8,10.7 C511.2,1034.2,523.9,1034,536.8,1034.6z M560.2,514.4c1.9-1.6,3.2-2.6,4.3-3.7c8.6-8.6,17.2-17.2,25.8-25.8 c35.1-35.2,70.2-70.3,105.3-105.5C757,318,818.5,256.4,880,194.8c5.8-5.8,5.9-5.9,0-11.4c-29.6-28.1-62-52.4-97.5-72.6 C741,87,696.9,69.6,650.4,59.3c-23.4-5.2-47.4-7.7-71.2-11.1c-6.2-0.9-12.5-0.8-19-1.1C560.2,203.1,560.2,358.2,560.2,514.4z M508.7,525.6C399.8,416.9,291.4,308.7,182.4,199.9C97.2,291.1,51.9,399.6,46.5,525.6C201.1,525.6,354.8,525.6,508.7,525.6z M560.5,578.2c0,151.3,0,303.3,0,455.8c65.5-2.9,127.4-18,186.4-45.4c49.5-22.9,93.9-53.3,133.4-91.4 C773.3,790.5,666.7,684.2,560.5,578.2z M903,206.8C796.1,313.5,690,419.4,583.8,525.5c149.2,0,298.5,0,448.7,0 C1027.3,402.9,984,296.5,903,206.8z"/> <path class="st1" d="M568.8,1074c11.1-1.2,22.4-1.9,33.4-3.7c21.2-3.4,42.3-6.8,63.3-11.3c33.3-7.2,65.2-18.8,96-33.1 c35.4-16.5,68.7-36.5,99.8-60.1c29.5-22.4,56.2-47.6,80.5-75.4c19.7-22.5,37.2-46.6,52.7-72.2c16-26.4,30-53.9,41-82.7 c6.8-17.7,12.9-35.8,17.6-54.1c5.8-22.8,10.6-45.9,14.2-69.2c6-38.5,6.6-77.3,3-116c-2.3-25.1-6.3-50.1-11.5-74.7 c-7.1-33.7-18.3-66.3-32.5-97.8c-12.7-28.4-27.5-55.5-44.9-81.3c-17.5-26-37.3-50.1-59.1-72.7c-20.9-21.7-43.5-41.4-67.7-59.3 c-21.1-15.5-42.9-29.9-66.3-41.5c-21.1-10.3-42.3-20.6-64.2-29C705,32.4,685,27.2,665.1,21.9c-30.1-8-60.9-12-91.9-14.1 c-1.4-0.1-2.9-0.5-4.3-0.8C737.2,7,905.6,7,1074,7c0,355.7,0,711.4,0,1067C905.6,1074,737.2,1074,568.8,1074z"/> <path class="st1" d="M510.2,7c-11.1,1.2-22.4,1.9-33.4,3.7c-21.2,3.4-42.3,6.8-63.3,11.3c-33.3,7.2-65.2,18.8-96,33.1 c-35.4,16.5-68.7,36.5-99.8,60.1c-29.5,22.4-56.2,47.6-80.5,75.4c-19.7,22.5-37.2,46.6-52.7,72.2c-16,26.4-30,53.9-41,82.7 c-6.8,17.7-12.9,35.8-17.6,54.1c-5.8,22.8-10.6,45.9-14.2,69.2c-6,38.5-6.6,77.3-3,116c2.3,25.1,6.3,50.1,11.5,74.7 c7.1,33.7,18.3,66.3,32.5,97.8c12.7,28.4,27.5,55.5,44.9,81.3c17.5,26,37.3,50.1,59.1,72.7c20.9,21.7,43.5,41.4,67.7,59.3 c21.1,15.5,42.9,29.9,66.3,41.5c21.1,10.3,42.3,20.6,64.2,29c19.2,7.4,39.3,12.6,59.2,17.9c30.1,8,60.9,12,91.9,14.1 c1.4,0.1,2.9,0.5,4.3,0.8c-168,0-336.1,0-504.2,0C6,718.3,6,362.6,6,7C174.1,7,342.2,7,510.2,7z"/> <path class="st1" d="M46.6,548.6c160,0,319.2,0,478.7,0c-112.8,112.5-225.1,224.4-338,337c-30.2-30.3-56.7-65.5-78.4-104.4 C68.9,709.2,48.3,631.9,46.6,548.6z M311.6,627.5c-1.1,26.9,22.5,50.6,49.9,50.5c28.1-0.2,51-22.5,51-50.2 c0-28.3-22.4-50.8-50.7-50.9C333.4,576.9,311.6,598.8,311.6,627.5z M219.3,558.5c-28.1-0.1-50.8,22.3-50.9,50.1 c-0.1,27.9,22.3,50.6,50.3,50.8c28.1,0.2,50.6-22,50.9-50.2C269.8,581.3,247.3,558.6,219.3,558.5z M144.6,753.3 c-0.1,28.2,22,50.7,50,50.9c28,0.2,50.7-22,50.8-49.6c0.1-28.7-21.8-51.2-50-51.4C167.2,703.1,144.7,725.2,144.6,753.3z"/> <path class="st1" d="M535.8,519.3c-8-8-16.1-15.9-24.1-23.9c-36.9-37-73.8-74-110.7-111c-53.5-53.6-107-107.1-160.5-160.7 c-12.2-12.2-24.3-24.6-36.6-36.6c-3.5-3.4-3-5.5,0.3-8.6c55.8-51.9,120.2-88.8,193.1-111c29.5-9,59.5-15.2,90.1-18.3 c14.7-1.5,29.6-1.6,44.3-2.6c4.7-0.3,6.1,1.6,5.8,5.8c-0.1,1.5,0,2.9,0,4.4c0,150.4,0,300.8,0,451.2c0,3.5,0,7.1,0,10.6 C536.9,518.9,536.3,519.1,535.8,519.3z M386.2,202.2c0.7-27-22.4-50.8-50.1-50.9s-50.9,23.4-50.8,50.3 c0.1,28.1,22.4,50.8,50.2,50.9C363.7,252.5,386.1,230.3,386.2,202.2z M469.7,308c-27.9-0.1-50.4,22-50.5,49.9 c-0.2,28.3,22,51,49.8,51.1c28.6,0.1,51-22,51-50.4C520.1,330.3,498,308.1,469.7,308z M529,217.8c1-27.9-23.7-50.9-50.4-50.6 c-27.6,0.3-50.3,22.7-50.5,50.3c-0.2,28,22.6,50.4,51,50.7C506.1,268.5,530,244.9,529,217.8z"/> <path class="st1" d="M897.6,879.7C787,769.3,676.8,659.4,565.9,548.7c155.7,0,310.8,0,466.4,0c-0.6,54.5-10.2,106.9-28.3,157.7 C980.7,771.9,945,829.8,897.6,879.7z M926.4,677.9c27.9,0,50.9-22.9,50.8-50.5c-0.1-27.8-22.8-50.4-50.8-50.4 c-28.1-0.1-50.6,22.4-50.7,50.4C875.8,655.3,898.5,677.9,926.4,677.9z M738.3,558.5c-28.1,0-50.6,22.2-50.8,50.3 c-0.3,27.7,22.6,50.6,50.5,50.7c28.1,0.1,50.6-22.2,50.7-50.3C788.7,581.1,766.3,558.5,738.3,558.5z M858.3,697.2 c-25.6-1.3-50.6,21-50.9,50.2c-0.3,27.5,22.8,50.7,50.1,50.8c29,0,50.6-23.6,50.9-50.2C908.8,719.8,883.9,695.9,858.3,697.2z"/> <path class="st1" d="M536.8,1034.6c-12.9-0.6-25.6-0.4-38.2-2c-23-2.9-46.1-5.9-68.8-10.7c-32.8-6.9-64.4-18-94.9-32 c-27.1-12.5-53.2-26.7-77.2-44.3c-16.8-12.3-32.5-25.9-48.8-38.8c-3.4-2.7-3.2-4.7-0.2-7.7c29.7-29.6,59.3-59.4,89-89.1 c42.5-42.6,85-85.2,127.5-127.8c28.9-29,57.9-57.9,86.9-86.9c7.2-7.2,14.5-14.5,21.8-21.7c0.6-0.6,1.5-1.1,3-2.3 C536.8,726.1,536.8,879.9,536.8,1034.6z M419.2,887.7c-0.2,28.2,21.9,50.9,49.9,51.2c27.8,0.3,50.7-22.4,50.9-50.3 c0.2-27.9-22.4-51.1-49.9-51.3C442.3,837.2,419.4,859.8,419.2,887.7z M335.3,948.9c28.4,0.1,50.7-21.8,50.9-50 c0.2-28.1-21.9-50.3-49.5-51c-27.6-0.7-51.5,22.4-51.4,50.1C285.4,926.3,307.4,948.8,335.3,948.9z M529,747.6 c1.2-27.9-24.3-50.8-50.3-50.7c-25.7,0.1-50.3,21.9-50.5,50.4c-0.2,27.7,22.8,50.8,50.5,50.9C506.7,798.2,530,774.7,529,747.6z"/> <path class="st1" d="M560.2,514.4c0-156.3,0-311.4,0-467.4c6.5,0.4,12.8,0.2,19,1.1c23.8,3.4,47.8,5.9,71.2,11.1 C696.9,69.6,741,87,782.5,110.7c35.5,20.2,67.9,44.5,97.5,72.6c5.9,5.6,5.8,5.6,0,11.4C818.5,256.4,757,318,695.5,379.5 c-35.1,35.1-70.2,70.3-105.3,105.5c-8.6,8.6-17.2,17.2-25.8,25.8C563.4,511.9,562.1,512.8,560.2,514.4z M635.8,126.8 c-27.9,0.5-50.5,23.6-49.9,50.8c0.7,29.2,23.4,50.9,52.8,50.4c26.7-0.5,48.8-24.2,48.4-51.8C686.6,148.7,663.4,126.3,635.8,126.8z M628.2,308c-28.4-0.1-50.3,21.8-50.8,50.1c-0.5,28.5,23.5,50.9,49.5,50.9c28.6,0,51.4-22.1,51.4-50.1 C678.4,330.7,656.1,308.1,628.2,308z M829.8,218.1c0-28.2-22.3-50.8-50.3-50.8c-27.8,0-50.5,22.5-50.5,50.1 c-0.1,28.4,22,50.8,50.1,50.8C807.6,268.2,829.8,246.3,829.8,218.1z"/> <path class="st1" d="M508.7,525.6c-153.9,0-307.5,0-462.1,0c5.4-126,50.6-234.5,135.9-325.6C291.4,308.7,399.8,416.9,508.7,525.6z M180.6,515.5c27.8,0,50.6-22.7,50.8-50.6c0.2-27.6-22.8-50.6-50.6-50.7c-27.8-0.1-50.7,22.7-50.7,50.5 C130.1,492.6,152.8,515.5,180.6,515.5z M335.8,494.5c27.8,0.1,50.3-22.5,50.4-50.6c0-27.7-22.4-50.5-49.9-50.6 c-28.3-0.1-50.9,22.4-50.9,50.6C285.4,471.8,307.9,494.4,335.8,494.5z M144.6,328.4c0,28.2,22.3,50.3,50.6,50.3 c28.1,0,50.2-22.5,50.2-50.8c-0.1-27.8-22.5-50.1-50.4-50.1C166.8,277.9,144.5,300.2,144.6,328.4z"/> <path class="st1" d="M560.5,578.2c106.2,106,212.8,212.3,319.8,318.9c-39.4,38.2-83.9,68.5-133.4,91.4 c-59,27.3-120.9,42.5-186.4,45.4C560.5,881.5,560.5,729.5,560.5,578.2z M577.5,939.6c-0.9,26.3,20.7,50.5,50,50.9 c27.6,0.4,50.8-22.7,50.9-50.3c0.1-28.2-22.5-50.9-50.5-51.1C599.7,889.1,576.9,912.5,577.5,939.6z M636.5,697.2 c-25.2-1.1-50.7,20.1-50.7,50.3c0.1,29.4,23.1,50.5,50.6,50.7c27.8,0.2,50.5-22.8,50.6-50.6C687.3,718.5,661.8,696,636.5,697.2z M802.6,873.7c1.2-26.5-22.2-50.5-49.9-50.4c-27.9,0.1-50.9,22.6-50.9,50.3c0,28.1,22.7,50.7,50.8,51 C779.9,924.8,803.8,900.8,802.6,873.7z"/> <path class="st1" d="M903,206.8c81,89.7,124.3,196.1,129.5,318.7c-150.2,0-299.5,0-448.7,0C690,419.4,796.1,313.5,903,206.8z M926.3,515.5c28.1,0,51-22.8,51-50.8c0-27.7-22.7-50.3-50.8-50.5c-27.9-0.2-50.7,22.5-50.7,50.5 C875.8,492.7,898.4,515.5,926.3,515.5z M775.1,464.7c1.1-26.2-21.7-50.7-50.3-50.5c-28,0.1-50.5,22.5-50.5,50.5 c0,28.3,22.5,50.8,50.7,50.9C753.3,515.5,776.1,491.4,775.1,464.7z M848,308c-28.4-0.1-50.5,21.9-50.6,50.2 c0,28.4,22,50.7,50.1,50.8c28.1,0.1,50.5-22.2,50.6-50.4C898.3,330.3,876.3,308.1,848,308z"/> <path class="st0" d="M311.6,627.5c0-28.6,21.8-50.6,50.2-50.5c28.3,0,50.7,22.5,50.7,50.9c0,27.7-22.9,50-51,50.2 C334.1,678.1,310.5,654.4,311.6,627.5z"/> <path class="st0" d="M219.3,558.5c28,0.1,50.5,22.8,50.2,50.8c-0.3,28.1-22.8,50.3-50.9,50.2c-28-0.2-50.4-22.9-50.3-50.8 C168.5,580.8,191.2,558.4,219.3,558.5z"/> <path class="st0" d="M144.6,753.3c0.1-28.1,22.6-50.2,50.8-50.1c28.2,0.1,50.1,22.6,50,51.4c-0.1,27.6-22.9,49.7-50.8,49.6 C166.6,804,144.5,781.5,144.6,753.3z"/> <path class="st0" d="M386.2,202.2c0,28.1-22.4,50.3-50.6,50.2c-27.9,0-50.1-22.8-50.2-50.9c-0.1-26.9,23.1-50.4,50.8-50.3 S386.9,175.3,386.2,202.2z"/> <path class="st0" d="M469.7,308c28.2,0.1,50.3,22.3,50.3,50.6c0,28.4-22.4,50.5-51,50.4c-27.8-0.1-50-22.8-49.8-51.1 C419.4,330.1,441.8,307.9,469.7,308z"/> <path class="st0" d="M529,217.8c1,27.1-22.9,50.7-49.9,50.4c-28.4-0.3-51.1-22.7-51-50.7c0.2-27.6,22.9-50,50.5-50.3 C505.3,166.9,530.1,189.9,529,217.8z"/> <path class="st0" d="M926.4,677.9c-28,0-50.7-22.6-50.6-50.5c0-28.1,22.6-50.5,50.7-50.4c28,0.1,50.7,22.6,50.8,50.4 C977.3,655,954.3,677.9,926.4,677.9z"/> <path class="st0" d="M738.3,558.5c28,0,50.4,22.6,50.3,50.7c-0.1,28-22.6,50.4-50.7,50.3c-27.9-0.1-50.7-23-50.5-50.7 C687.7,580.7,710.2,558.5,738.3,558.5z"/> <path class="st0" d="M858.3,697.2c25.6-1.2,50.5,22.6,50.1,50.8c-0.4,26.6-21.9,50.2-50.9,50.2c-27.3,0-50.4-23.3-50.1-50.8 C807.6,718.1,832.7,695.9,858.3,697.2z"/> <path class="st0" d="M419.2,887.7c0.2-27.9,23.1-50.5,50.9-50.3c27.6,0.2,50.1,23.3,49.9,51.3c-0.2,27.9-23.2,50.6-50.9,50.3 C441.2,938.6,419,915.9,419.2,887.7z"/> <path class="st0" d="M335.3,948.9c-28-0.1-49.9-22.6-50-50.9c-0.1-27.7,23.9-50.8,51.4-50.1c27.6,0.7,49.6,22.9,49.5,51 C386,927.1,363.7,949,335.3,948.9z"/> <path class="st0" d="M529,747.6c1,27.1-22.3,50.6-50.4,50.6c-27.7-0.1-50.7-23.1-50.5-50.9c0.2-28.5,24.8-50.3,50.5-50.4 C504.7,696.7,530.2,719.7,529,747.6z"/> <path class="st0" d="M635.8,126.8c27.6-0.5,50.8,21.9,51.3,49.4c0.4,27.6-21.7,51.3-48.4,51.8c-29.4,0.6-52.1-21.2-52.8-50.4 C585.2,150.4,607.9,127.4,635.8,126.8z"/> <path class="st0" d="M628.2,308c27.9,0.1,50.2,22.7,50.1,50.9c-0.1,28-22.8,50.1-51.4,50.1c-26.1,0-50-22.4-49.5-50.9 C577.9,329.8,599.7,307.9,628.2,308z"/> <path class="st0" d="M829.8,218.1c0,28.2-22.2,50.1-50.7,50.1c-28.1,0-50.1-22.4-50.1-50.8c0.1-27.6,22.7-50.1,50.5-50.1 C807.5,167.3,829.8,189.9,829.8,218.1z"/> <path class="st0" d="M180.6,515.5c-27.8,0-50.5-22.9-50.5-50.8c0-27.8,22.9-50.6,50.7-50.5c27.9,0.1,50.8,23.1,50.6,50.7 C231.2,492.8,208.4,515.5,180.6,515.5z"/> <path class="st0" d="M335.8,494.5c-27.9-0.1-50.5-22.7-50.5-50.6c0-28.2,22.6-50.7,50.9-50.6c27.5,0.1,50,22.8,49.9,50.6 C386.2,471.9,363.7,494.5,335.8,494.5z"/> <path class="st0" d="M144.6,328.4c0-28.2,22.2-50.5,50.4-50.6c27.9,0,50.4,22.3,50.4,50.1c0.1,28.3-22.1,50.7-50.2,50.8 C166.9,378.7,144.6,356.6,144.6,328.4z"/> <path class="st0" d="M577.5,939.6c-0.5-27.1,22.2-50.5,50.4-50.4c28,0.1,50.6,22.9,50.5,51.1c-0.1,27.6-23.2,50.8-50.9,50.3 C598.1,990.1,576.6,965.9,577.5,939.6z"/> <path class="st0" d="M636.5,697.2c25.3-1.2,50.8,21.3,50.6,50.4c-0.2,27.8-22.8,50.8-50.6,50.6c-27.5-0.2-50.5-21.3-50.6-50.7 C585.8,717.3,611.3,696,636.5,697.2z"/> <path class="st0" d="M802.6,873.7c1.2,27.1-22.7,51.1-50.1,50.8c-28.1-0.3-50.8-22.8-50.8-51c0-27.7,23-50.2,50.9-50.3 C780.4,823.2,803.8,847.2,802.6,873.7z"/> <path class="st0" d="M926.3,515.5c-27.9,0-50.5-22.8-50.5-50.8c0-28,22.8-50.6,50.7-50.5c28,0.2,50.8,22.8,50.8,50.5 C977.3,492.7,954.4,515.5,926.3,515.5z"/> <path class="st0" d="M775.1,464.7c1,26.7-21.8,50.8-50.1,50.8c-28.2,0-50.7-22.6-50.7-50.9c0-28,22.5-50.3,50.5-50.5 C753.4,414,776.2,438.5,775.1,464.7z"/> <path class="st0" d="M848,308c28.3,0.1,50.2,22.3,50.2,50.7c-0.1,28.2-22.5,50.5-50.6,50.4c-28.2-0.1-50.2-22.5-50.1-50.8 C797.5,329.9,819.6,307.9,848,308z"/> </g> </g> </svg>