<?xml version="1.0" encoding="UTF-8"?>
<svg enable-background="new 0 0 200.074 173.16" viewBox="0 0 200.074 173.16" xmlns="http://www.w3.org/2000/svg">
 <path d="m179.501,56.61c1.115-6.156.54-12.276-1.729-18.36-2.34-6.228-5.04-12.708-11.988-18.324-7.128-5.724-19.403-11.664-30.023-15.048-10.764-3.42-21.528-4.716-33.804-4.86-12.528-.18-27.504.432-39.78,4.068-12.24,3.708-24.984,10.8-32.976,17.676-8.028,6.696-12.816,14.58-14.796,22.392-1.98,7.74-1.224,15.516 2.664,23.724-.288,3.06-1.692,4.752-4.356,5.22-2.808.324-9.828-3.348-11.736-2.664-1.944.72-.792,5.328.54,6.876 1.26,1.44 3.708,1.98 7.2,1.764-2.556,1.404-3.816,2.808-3.924,4.068-.144,1.224 1.008,2.448 3.312,3.528l-6.768,9.324 .612,4.969c2.16-.324 4.392-.324 6.84-.145 2.412.18 4.896.684 7.596,1.367-1.98,1.045-2.88,2.846-2.844,5.256 .108,2.377.972,5.51 3.132,9.252-1.512,7.164-1.584,13.393.18,18.686 1.656,5.256 2.736,7.703 9.9,12.887 7.128,5.076 19.944,13.105 32.616,17.424 12.564,4.178 26.352,8.461 42.48,7.453 16.056-1.297 40.645-6.588 53.064-14.365 12.168-7.811 18.863-18.432 20.088-32.146l5.147-6.336c1.152-3.961 1.872-7.273 1.872-10.225-.036-2.988-.504-5.328-1.691-7.309 .216-2.016.287-4.428.216-7.236-.072-2.951-.396-6.119-.828-9.935 2.088.036 4.104.432 6.444,1.332 2.304.828 4.68,4.464 7.128,3.671 2.411-.9 6.659-4.715 6.768-8.963-.108-4.428-3.672-12.816-7.092-16.992-3.492-4.213-7.849-6.841-13.464-8.029z" fill-rule="evenodd" stroke="#000" stroke-miterlimit="10" stroke-width=".036"/>
 <path d="m176.729,59.563c-1.8,8.1-6.948,14.472-15.876,19.692-9.072,5.112-23.436,8.855-37.691,10.656-14.437,1.584-32.869.793-47.665-.721-14.868-1.619-30.06-3.671-40.14-8.531-10.116-4.969-17.28-12.745-19.548-20.809-2.16-8.208-.144-19.224 6.192-27.648 6.264-8.604 19.692-17.64 30.852-22.68 11.196-5.004 24.3-5.904 35.28-6.876 10.728-1.08 19.044-.648 28.979.9 9.9,1.404 21.097,3.528 30.24,8.172 9.108,4.68 18.756,11.304 23.796,19.44 4.861,8.1 7.273,20.16 5.581,28.405z" fill="#fff" fill-rule="evenodd" stroke="#000" stroke-miterlimit="10" stroke-width=".036"/>
 <path d="m179.824,58.518c3.421.756 6.589,2.628 9.36,5.616s6.156,8.028 7.236,12.06c.863,3.888-.288,9.72-1.512,11.376-1.225,1.512-3.097-.72-6.049-1.692-3.239-1.116-8.172-3.168-12.456-4.212-4.248-1.044-8.495-1.692-12.888-1.944 3.24-.9 6.229-2.988 8.964-6.552 2.702-3.6 5.15-8.388 7.345-14.652z" fill="#fff" fill-rule="evenodd" stroke="#000" stroke-miterlimit="10" stroke-width=".036"/>
 <path d="m152.896,102.295c-3.06.936-5.508,3.527-7.488,7.775-2.016,4.248-3.42,9.9-4.355,17.389-.576-1.332-2.88-3.24-7.452-5.58-4.536-2.34-11.016-5.256-19.584-8.605 .792-1.512 2.016-2.268 3.528-2.555 1.512-.361 4.104,1.475 5.688.936 1.584-.648 2.628-1.836 3.564-4.104 1.439,1.619 2.987,2.303 4.5,2.051 1.548-.287 3.168-3.6 4.716-3.672 1.44-.18 2.628.756 3.708,2.809 .756-3.707 2.232-6.084 4.428-7.129 2.232-1.151 5.003-.792 8.747.685z" fill="#fff" fill-rule="evenodd" stroke="#000" stroke-miterlimit="10" stroke-width=".036"/>
 <path d="m113.26 113.99c3.312 1.332 6.228 2.52 9.036 3.709 2.664 1.08 4.392 1.584 7.523 3.311 3.168 1.729 6.805 3.961 11.196 6.84l-0.468 3.781c-4.428-3.205-8.748-6.012-13.5-8.424-4.68-2.449-9.612-4.465-14.652-6.193l0.865-3.024z" fill="#fff" fill-rule="evenodd" stroke="#000" stroke-miterlimit="10" stroke-width=".036"/>
 <path d="m2.849,95.67 6.336-7.055c2.736,1.979 4.86,3.023 6.768,3.275 1.764.107 2.808-2.232 4.248-2.16 1.296-.037 2.484,2.664 4.14,2.412 1.584-.396 4.68-4.68 5.832-4.393 1.116.217 1.44,2.088.972,5.76 .72,1.404 1.188,2.377 1.404,3.457 .216.971.144,1.691-.072,2.303-3.708-1.295-7.992-2.195-12.852-2.699-4.896-.504-10.368-.721-16.416-.504l-.36-.396z" fill="#fff" fill-rule="evenodd" stroke="#000" stroke-miterlimit="10" stroke-width=".036"/>
 <path d="m33.593,100.818c-2.7-1.188-6.48-1.943-11.736-2.664-5.256-.756-11.592-1.08-19.404-1.367l.684,2.303c2.808.18 5.796.576 9.108,1.045 3.24.432 6.912,1.008 10.62,1.871 3.636.756 7.416,1.764 11.34,3.025-.18-1.404-.396-2.808-.612-4.213z" fill="#fff" fill-rule="evenodd" stroke="#000" stroke-miterlimit="10" stroke-width=".036"/>
 <path d="m33.376,83.286c-.468,2.88-.396,5.796.072,9.144 .468,3.205 1.332,7.164 2.736,10.369 1.332,3.096 1.584,6.299 5.472,8.207 3.852,1.873 11.844,6.049 17.46,2.809 5.508-3.527 10.656-11.016 15.588-23.148-5.868-.18-12.06-.936-19.008-2.123-6.983-1.226-14.291-3.026-22.32-5.258z" fill="#fff" fill-rule="evenodd" stroke="#000" stroke-miterlimit="10" stroke-width=".036"/>
 <path d="m19.013,103.014c3.096.289 5.868.721 8.748,1.441 2.772.646 5.364,1.439 7.92,2.52 .54,2.303 1.728,4.211 3.996,5.867 2.124,1.584 6.012,2.953 9.036,3.709 2.844.576 5.724,1.512 8.784.287 3.168-1.295 6.228-3.816 9.756-7.703 2.34.18 4.716.072 7.272-.18 2.484-.361 5.04-.865 7.668-1.656-1.008,2.555-.504,4.355 1.368,5.004 1.944.611 5.076.467 9.936-.828l-1.008,8.352c-5.364,2.988-11.664,5.004-18.9,5.904-7.416.973-15.624,3.24-24.768-.396-9.217-3.853-18.972-11.161-29.808-22.321z" fill="#fff" fill-rule="evenodd" stroke="#000" stroke-miterlimit="10" stroke-width=".036"/>
 <path d="m101.7 116.69c2.304 2.773 5.832 4.896 10.872 6.805 5.039 1.801 11.159 3.096 18.936 4.033-4.608-2.16-8.748-3.889-12.42-5.725-3.744-1.801-6.948-3.385-9.756-4.896l-4.393-6.229c-1.08 1.981-2.16 3.997-3.239 6.012z" fill="#fff" fill-rule="evenodd" stroke="#000" stroke-miterlimit="10" stroke-width=".036"/>
 <path d="m112.324,107.119c-1.476-5.113-2.951-10.262-4.464-15.408-7.631.359-13.86.539-19.115.539-5.22-.072-9.324-.324-12.168-.756-3.348,5.867-5.436,10.08-6.12,12.779-.72,2.594.252,2.701 1.8,3.098 1.476.322 4.248-.361 6.912-.938 2.448-.611 5.148-1.584 8.1-2.771-2.34,2.377-3.492,4.068-3.6,5.221-.108,1.043.936,1.439 2.988,1.619 1.872.18 4.68-.035 8.424-.504-.576,3.24-.396,5.58.144,6.877 .648,1.332 1.98,2.592 3.42.863 1.332-1.943 2.809-5.832 4.572-12.061 3.42,4.465 5.832,6.877 7.38,7.092 1.475.217 2.051-1.619 1.727-5.65z" fill="#fff" fill-rule="evenodd" stroke="#000" stroke-miterlimit="10" stroke-width=".036"/>
 <path d="m144.581,123.75c2.34-.648 5.04-1.799 8.1-3.168 3.096-1.439 6.336-3.24 10.116-5.4-1.404-5.436-2.628-8.604-3.528-9.646-.972-1.117-1.188,3.707-2.016,3.383-.9-.324-1.98-2.195-3.24-5.471-2.916,2.051-5.22,4.787-6.768,8.207-1.549,3.347-2.484,7.38-2.664,12.095z" fill="#fff" fill-rule="evenodd" stroke="#000" stroke-miterlimit="10" stroke-width=".036"/>
 <path d="m178.097,88.578-5.508,5.545c.18,3.023.611,5.58 1.296,7.668 .647,2.088 1.439,3.6 2.52,4.68l2.772-3.348c-.361-4.824-.72-9.685-1.08-14.545z" fill="#fff" fill-rule="evenodd" stroke="#000" stroke-miterlimit="10" stroke-width=".036"/>
 <path d="m174.064,107.91c-.54-1.619-1.584-2.412-2.987-2.375-1.584-.072-5.005,1.26-5.797,2.482-.756,1.152-.287,2.736 1.404,4.609 1.836-.865 3.384-1.801 4.645-2.521 1.151-.755 2.195-1.584 2.735-2.195z" fill="#fff" fill-rule="evenodd" stroke="#000" stroke-miterlimit="10" stroke-width=".036"/>
 <path d="m16.708,103.734c-1.764.035-2.196,1.619-1.296,4.896 .936,3.311 3.348,9.9 6.408,14.328 2.88,4.176 3.708,6.408 11.088,11.016 7.416,4.535 18.54,12.6 32.688,16.271 14.148,3.637 35.604,7.164 50.904,5.436 15.084-1.908 28.548-10.223 39.023-16.344 10.332-6.229 17.784-12.744 22.752-20.232 1.765-6.551 2.448-10.295 1.908-11.771-.576-1.477-1.979,1.188-5.04,3.275-3.204,2.053-8.532,6.156-13.644,9.109-5.221,2.879-10.765,5.363-17.028,7.848l-2.484,6.805-8.279-4.465c-3.204.756-7.561.359-12.925-1.188-5.508-1.621-11.88-4.32-19.548-8.244-6.696,3.131-13.572,5.508-21.204,6.984-7.668,1.475-16.524,3.131-24.084,1.908-7.74-1.477-14.832-5.545-21.42-9.828-6.55-4.319-12.49-9.54-17.819-15.804z" fill="#fff" fill-rule="evenodd" stroke="#000" stroke-miterlimit="10" stroke-width=".036"/>
 <path d="m64.949,134.586c.576.613 21.132,5.221 32.22,5.617 10.98.143 29.161-2.916 33.3-3.926 3.96-1.043-3.061-1.871-9.108-1.799-6.155,0-17.748,2.16-27.144,2.195-9.576-.071-29.7-2.663-29.268-2.087z" fill-rule="evenodd" stroke="#000" stroke-miterlimit="10" stroke-width=".036"/>
 <path d="m17.681 121.3c3.852 5.615 8.928 10.729 15.516 15.732 6.444 4.932 14.22 10.15 23.616 13.715 9.54 3.42 20.772 5.617 32.58 6.732 11.628 1.115 25.632 1.691 36.612-0.359 10.908-2.232 20.268-7.74 28.224-12.492 7.813-4.752 13.824-9.973 18.433-15.805 0.468 4.535-1.08 9.145-4.645 13.969-3.708 4.787-9.647 10.619-16.848 14.723-7.309 3.996-15.265 7.381-26.244 9.469-11.196 2.016-26.028 4.031-39.348 2.592-13.284-1.619-29.232-7.127-39.672-11.951-10.548-5.004-17.928-10.98-22.716-17.102-4.716-6.155-6.552-12.421-5.508-19.223z" fill="#fff" fill-rule="evenodd" stroke="#000" stroke-miterlimit="10" stroke-width=".036"/>
 <path d="m110.488,92.934c1.261,5.076 2.664,8.893 4.212,11.592 1.549,2.664 3.204,3.602 4.824,4.32 1.548.576 3.097,0 4.212-.611 .937-.721 1.477-1.801 1.62-3.385 1.692,1.189 3.204,1.836 4.536,1.656 1.188-.287 1.584-2.16 3.132-2.555 1.513-.434 3.492-.324 6.084.18 .54-3.42 1.872-5.438 4.393-6.336 2.483-.9 7.992-.072 10.26,1.08 2.088,1.15 1.476,4.68 2.484,5.436 .792.539 1.836-3.457 3.132-1.836 1.26,1.547 3.815,10.043 4.607,11.195 .648,1.045-.359-2.844-.252-4.572-.036-1.871-.216-5.146.576-6.084 .9-.936 2.664.252 4.176.504 1.368.037 2.593.182 3.816.145-1.368-2.484-2.16-4.932-2.088-6.947-.072-2.125.72-3.637 2.088-5.652 1.296-2.125 3.276-4.248 5.939-6.66l-16.308-2.808c-3.492,1.908-8.208,3.924-14.292,5.652-6.264,1.764-16.056,4.031-22.284,5.004-6.262.971-11.123,1.15-14.867.682z" fill="#fff" fill-rule="evenodd" stroke="#000" stroke-miterlimit="10" stroke-width=".036"/>
 <path d="m19.301,69.498c.36,2.196-.324,3.564-1.656,4.5-1.512.792-4.32.648-6.876.54-2.7-.252-7.776-2.196-8.712-1.8-.864.36 1.584,2.916 3.312,3.924 1.584.936 3.78,1.26 6.444,1.368-2.052,2.304-2.916,4.356-2.88,6.012 .108,1.656 1.764,3.276 3.312,3.887 1.44.432 3.6-.684 5.364-.575 1.584.144 2.124,2.017 4.536,1.296 2.34-.936 5.364-3.132 9.36-6.588-1.476-.54-3.168-1.908-5.22-3.96-2.016-2.088-4.392-5.004-6.984-8.604z" fill="#fff" fill-rule="evenodd" stroke="#000" stroke-miterlimit="10" stroke-width=".036"/>
 <path d="m45.148,88.254c-.144-.287-1.728-.576-1.836-.432-.144.107.288.828.72,1.045 .253,0 1.225-.433 1.116-.613z" fill-rule="evenodd" stroke="#000" stroke-miterlimit="10" stroke-width=".036"/>
 <path d="m45.761,91.854c-.144-.287-1.728-.576-1.836-.432-.144.109.288.828.72,1.045 .251,0 1.224-.432 1.116-.613z" fill-rule="evenodd" stroke="#000" stroke-miterlimit="10" stroke-width=".036"/>
 <path d="m45.905,98.982c-.144-.289-1.728-.576-1.836-.432-.144.107.288.828.72,1.043 .252.001 1.224-.431 1.116-.611z" fill-rule="evenodd" stroke="#000" stroke-miterlimit="10" stroke-width=".036"/>
 <path d="m45.473,95.455c-.144-.289-1.728-.576-1.836-.434-.144.109.288.828.72,1.045 .252,0 1.224-.431 1.116-.611z" fill-rule="evenodd" stroke="#000" stroke-miterlimit="10" stroke-width=".036"/>
 <path d="m46.985,103.086c-.144-.287-1.728-.576-1.836-.432-.144.107.288.828.72,1.045 .252,0 1.224-.433 1.116-.613z" fill-rule="evenodd" stroke="#000" stroke-miterlimit="10" stroke-width=".036"/>
 <path d="m47.705,107.082c-.144-.287-1.728-.576-1.836-.432-.108.107.216.828.684,1.043 .216,0 1.296-.431 1.152-.611z" fill-rule="evenodd" stroke="#000" stroke-miterlimit="10" stroke-width=".036"/>
 <path d="m52.168,108.055c.036-.289 1.62-.432 1.836-.289 .108.145-.468.793-.756.973-.395-.036-1.223-.54-1.08-.684z" fill-rule="evenodd" stroke="#000" stroke-miterlimit="10" stroke-width=".036"/>
 <path d="m53.5,103.77c.108-.287 1.656-.395 1.872-.322 .144.107-.54.863-.792,1.008-.395-.038-1.224-.542-1.08-.686z" fill-rule="evenodd" stroke="#000" stroke-miterlimit="10" stroke-width=".036"/>
 <path d="m54.653,99.811c.036-.289 1.62-.432 1.836-.289 .108.145-.468.793-.756.973-.396-.036-1.224-.54-1.08-.684z" fill-rule="evenodd" stroke="#000" stroke-miterlimit="10" stroke-width=".036"/>
 <path d="m56.237,96.354c.036-.287 1.62-.395 1.836-.322 .108.107-.468.863-.756,1.008-.396-.038-1.224-.542-1.08-.686z" fill-rule="evenodd" stroke="#000" stroke-miterlimit="10" stroke-width=".036"/>
 <path d="m57.173,92.609c.108-.287 1.656-.395 1.872-.322 .144.143-.54.791-.792.971-.397-.072-1.224-.467-1.08-.649z" fill-rule="evenodd" stroke="#000" stroke-miterlimit="10" stroke-width=".036"/>
 <path d="m176.656,76.302c.181-.072.612-1.692.612-1.8-.107-.18-1.08.216-1.116.612-.107.216.252,1.261.504,1.188z" fill-rule="evenodd" stroke="#000" stroke-miterlimit="10" stroke-width=".036"/>
 <path d="m181.229,78.246c.181-.072.612-1.692.612-1.8-.108-.18-1.08.216-1.116.612-.109.216.252,1.26.504,1.188z" fill-rule="evenodd" stroke="#000" stroke-miterlimit="10" stroke-width=".036"/>
 <path d="m185.692,80.406c.181-.072.576-1.692.648-1.8-.108-.18-1.08.216-1.116.612-.179.216.253,1.26.468,1.188z" fill-rule="evenodd" stroke="#000" stroke-miterlimit="10" stroke-width=".036"/>
 <path d="m191.165,81.81c.18-.108.611-1.62.611-1.764-.107-.252-1.08.216-1.115.576-.108.216.252,1.26.504,1.188z" fill-rule="evenodd" stroke="#000" stroke-miterlimit="10" stroke-width=".036"/>
 <path d="m189.148,75.222c.181-.072.612-1.692.612-1.8-.108-.18-1.08.216-1.116.612-.107.216.252,1.26.504,1.188z" fill-rule="evenodd" stroke="#000" stroke-miterlimit="10" stroke-width=".036"/>
 <path d="m185.692,70.974c.181-.108.612-1.62.612-1.764-.108-.252-1.08.216-1.116.576-.107.216.252,1.26.504,1.188z" fill-rule="evenodd" stroke="#000" stroke-miterlimit="10" stroke-width=".036"/>
 <path d="m180.509,67.662c.18-.072.612-1.692.612-1.8-.108-.18-1.08.216-1.116.612-.109.216.252,1.26.504,1.188z" fill-rule="evenodd" stroke="#000" stroke-miterlimit="10" stroke-width=".036"/>
 <path d="m156.82,86.778c.217-.108 3.349.792 5.221,2.845 1.728,1.943 4.536,8.1 5.075,9.287 .36,1.115-1.655-.973-2.592-2.375-1.044-1.621-1.979-4.969-3.24-6.588-1.403-1.656-4.607-3.169-4.464-3.169z" fill-rule="evenodd" stroke="#000" stroke-miterlimit="10" stroke-width=".036"/>
 <path d="m125.717,93.799c-.433-.252-.036,2.807-.9,4.176-1.044,1.332-4.248,3.744-4.319,4.031 0,.217 3.132-2.195 4.248-2.52 1.008-.432.863.035 1.907.432 .973.324 4.104,1.801 4.141,1.656-.108-.287-3.24-1.439-4.104-2.771-.901-1.369-.721-4.932-.973-5.004z" fill-rule="evenodd" stroke="#000" stroke-miterlimit="10" stroke-width=".036"/>
 <path d="m95.153,94.734c-.288,1.477-.576,2.844-.864,4.176-.324,1.332.792,2.629-.36,4.031-1.224,1.441-6.912,4.357-6.768,4.537 .108.072 5.544-3.492 7.092-3.133 1.512.361 1.656,5.4 1.98,5.293 .324-.145-1.044-3.023 1.044-4.861 2.052-1.836 4.644-2.088 4.644-2.088-2.16.109-3.672-.432-4.824-1.764-1.152-1.366-1.8-3.382-1.944-6.191z" fill-rule="evenodd" stroke="#000" stroke-miterlimit="10" stroke-width=".036"/>
 <path d="m49.541,48.87c-.576.072-1.476.324-2.124.9-.828.576-2.088,1.62-2.232,2.556-.108.864.864,2.16 1.656,2.376 .612,0 1.692-.936 2.412-1.836 .648-1.044 1.584-3.168 1.692-3.852 .035-.756-.9-.288-1.404-.144z" fill-rule="evenodd" stroke="#000" stroke-miterlimit="10" stroke-width=".036"/>
 <path d="m49.145,49.554c-.54.108-.972.108-1.584.684-.612.54-1.908,1.404-1.944,2.196-.18.72.72,1.584 1.296,1.764 .432-.072 1.476-.9 2.016-1.656 .468-.864 1.224-2.376 1.296-2.88 0-.54-.684-.252-1.08-.108z" fill="#fff" fill-rule="evenodd" stroke="#000" stroke-miterlimit="10" stroke-width=".036"/>
 <path d="m80.213,59.022c.18.54.36,1.26 1.08,2.016 .648.72 1.728,1.872 2.7,2.052 .828.072 2.088-1.332 2.268-1.872-.072-.828-1.08-1.62-2.052-2.232-1.152-.684-3.276-1.368-3.996-1.368-.612-.035-.288.757 0,1.404z" fill-rule="evenodd" stroke="#000" stroke-miterlimit="10" stroke-width=".036"/>
 <path d="m80.933,59.346c.144.432.18.936.792,1.512 .54.576 1.548,1.584 2.34,1.764 .756.036 1.548-.9 1.692-1.404-.108-.612-1.044-1.44-1.836-1.908-.864-.54-2.556-1.08-2.988-1.044-.504,0-.181.54 0,1.08z" fill="#fff" fill-rule="evenodd" stroke="#000" stroke-miterlimit="10" stroke-width=".036"/>
 <path d="m106.349,36.378c-.612.072-1.404.324-2.088.9-.792.54-2.196,1.656-2.268,2.52-.145.828.936,2.232 1.691,2.412 .648,0 1.62-.936 2.376-1.836 .648-1.116 1.584-3.204 1.692-3.888 .037-.648-.899-.36-1.403-.108z" fill-rule="evenodd" stroke="#000" stroke-miterlimit="10" stroke-width=".036"/>
 <path d="m105.988,37.026c-.54.108-.972.108-1.584.684-.611.54-1.907,1.404-1.943,2.196-.145.684.647,1.656 1.26,1.8 .54-.036 1.404-.972 2.052-1.692 .504-.864 1.152-2.376 1.26-2.88-.036-.54-.612-.252-1.045-.108z" fill="#fff" fill-rule="evenodd" stroke="#000" stroke-miterlimit="10" stroke-width=".036"/>
 <path d="m95.729,23.274c-.432.468-.648,1.188-.792,2.16-.108.936-.216,2.664.36,3.384 .576.612 2.232.792 2.88.396 .576-.432.396-1.944.288-3.024-.324-1.26-1.26-3.384-1.692-3.852-.541-.576-.756.432-1.044.936z" fill-rule="evenodd" stroke="#000" stroke-miterlimit="10" stroke-width=".036"/>
 <path d="m95.945,24.03c-.252.288-.576.828-.576,1.62-.18.792-.072,2.232.324,2.916 .432.54 1.62.576 2.16.252 .396-.468.252-1.764.144-2.628-.288-1.044-.9-2.52-1.26-2.88-.396-.36-.612.253-.792.72z" fill="#fff" fill-rule="evenodd" stroke="#000" stroke-miterlimit="10" stroke-width=".036"/>
 <path d="m109.121,15.39c.323.144.684.684 1.367.792 .612.072 1.765.396 2.341.144 .504-.288.756-1.62.611-1.908-.324-.432-1.188-.612-2.016-.54-.9.108-2.448.288-2.844.684-.395.216.108.54.541.828z" fill-rule="evenodd" stroke="#000" stroke-miterlimit="10" stroke-width=".036"/>
 <path d="m109.625,15.318c.216.216.468.36 1.044.576 .504.144 1.548.288 2.016.144 .324-.18.648-1.26.432-1.44-.287-.324-1.151-.468-1.764-.432-.72,0-1.8.216-2.124.504-.252.18.072.396.396.648z" fill="#fff" fill-rule="evenodd" stroke="#000" stroke-miterlimit="10" stroke-width=".036"/>
 <path d="m103.181,9.702c-.252-.468-.54-.828-1.008-1.224-.612-.468-1.548-1.116-2.124-.972-.648.072-1.296,1.008-1.26,1.548 .072.396.828.9 1.692,1.224 .72.18 2.376.504 2.88.396 .396-.252-.037-.576-.18-.972z" fill-rule="evenodd" stroke="#000" stroke-miterlimit="10" stroke-width=".036"/>
 <path d="m102.641,9.594c-.216-.324-.324-.684-.72-.936-.576-.432-1.368-.864-1.836-.864-.432.072-1.116.756-.936,1.224 .108.324.792.756 1.476,1.008 .648.18 1.692.324 2.16.288 .252-.144-.072-.432-.144-.72z" fill="#fff" fill-rule="evenodd" stroke="#000" stroke-miterlimit="10" stroke-width=".036"/>
 <path d="m88.133,11.466c.144-.504.288-.9.288-1.584-.144-.792-.144-1.872-.576-2.268-.432-.432-1.8-.36-2.016.072-.36.288-.18,1.296.144,2.052 .216.684 1.188,2.16 1.548,2.484 .396.216.324-.36.612-.756z" fill-rule="evenodd" stroke="#000" stroke-miterlimit="10" stroke-width=".036"/>
 <path d="m87.881,10.962c.072-.288.252-.72.252-1.152-.108-.576-.288-1.692-.54-1.944-.36-.396-1.368-.252-1.512.036-.216.324-.108,1.116.18,1.8 .144.576.864,1.512 1.188,1.836 .18.072.323-.252.432-.576z" fill="#fff" fill-rule="evenodd" stroke="#000" stroke-miterlimit="10" stroke-width=".036"/>
 <path d="m72.077,9.378c-.108.324-.036.972.216,1.548 .252.612.684,1.584 1.296,1.944 .54.18 1.62-.324 1.872-.684 .108-.504-.288-1.332-.792-1.908-.504-.756-1.908-1.692-2.268-1.836-.468-.144-.396.396-.324.936z" fill-rule="evenodd" stroke="#000" stroke-miterlimit="10" stroke-width=".036"/>
 <path d="m72.437,9.738c-.072.252-.108.684.18,1.152 .072.396.72,1.476 1.116,1.692 .324.072 1.296-.144 1.404-.504 0-.396-.288-1.224-.72-1.656-.432-.576-1.512-1.26-1.728-1.368-.324-.179-.36.324-.252.684z" fill="#fff" fill-rule="evenodd" stroke="#000" stroke-miterlimit="10" stroke-width=".036"/>
 <path d="m66.173,16.434c-.216-.36-.576-.936-1.08-1.188-.684-.468-1.584-.936-2.16-.828-.72.072-1.152,1.116-1.152,1.62 .072.468.936.792 1.764,1.116 .72.216 2.376.288 2.88.216 .324-.216-.036-.576-.252-.936z" fill-rule="evenodd" stroke="#000" stroke-miterlimit="10" stroke-width=".036"/>
 <path d="m65.668,16.326c-.252-.324-.396-.612-.828-.864-.54-.396-1.44-.792-1.872-.756-.468.036-1.08.828-.864,1.26 .144.36.864.72 1.584.936 .648.18 1.692.18 2.16.144 .253-.108-.035-.54-.18-.72z" fill="#fff" fill-rule="evenodd" stroke="#000" stroke-miterlimit="10" stroke-width=".036"/>
 <path d="m124.564,7.47c-.359-.252-.899-.612-1.476-.648-.756-.144-1.908-.288-2.34.108-.54.324-.721,1.584-.396,1.98 .252.288 1.225.396 2.088.324 .792-.144 2.305-.756 2.736-1.008 .361-.324-.36-.576-.612-.756z" fill-rule="evenodd" stroke="#000" stroke-miterlimit="10" stroke-width=".036"/>
 <path d="m124.024,7.578c-.288-.288-.647-.396-1.08-.468-.575-.108-1.62-.216-2.016.108-.432.252-.576,1.116-.288,1.476 .252.216 1.08.288 1.8.216 .648-.18 1.656-.576 2.053-.756 .216-.252-.217-.396-.469-.576z" fill="#fff" fill-rule="evenodd" stroke="#000" stroke-miterlimit="10" stroke-width=".036"/>
 <path d="m131.765,13.158c.18-.36.468-.9.576-1.476 .144-.756.036-1.908-.18-2.34-.396-.504-1.656-.648-1.98-.288-.432.216-.468,1.224-.252,2.052 .18.828.684,2.196 1.116,2.7 .216.252.504-.288.72-.648z" fill-rule="evenodd" stroke="#000" stroke-miterlimit="10" stroke-width=".036"/>
 <path d="m131.621,12.654c.071-.216.359-.72.432-1.116-.072-.54.144-1.728-.18-2.016-.36-.432-1.225-.504-1.477-.216-.216.252-.396,1.08-.144,1.8 .144.648.468,1.656.828,2.052 .145.072.324-.144.541-.504z" fill="#fff" fill-rule="evenodd" stroke="#000" stroke-miterlimit="10" stroke-width=".036"/>
 <path d="m140.549,13.086c0,.324-.108.972.252,1.548 .18.684.828,1.512 1.368,1.908 .54.108 1.62-.324 1.872-.72 .071-.504-.396-1.332-.864-1.908-.576-.648-1.944-1.692-2.304-1.764-.469-.144-.396.396-.324.936z" fill-rule="evenodd" stroke="#000" stroke-miterlimit="10" stroke-width=".036"/>
 <path d="m140.944,13.446c-.071.252-.107.684.181,1.152 .144.432.72,1.404 1.188,1.656 .324.108 1.296-.216 1.404-.54 0-.396-.396-1.224-.792-1.656-.432-.504-1.512-1.26-1.729-1.296-.323-.179-.359.324-.252.684z" fill="#fff" fill-rule="evenodd" stroke="#000" stroke-miterlimit="10" stroke-width=".036"/>
 <path d="m151.385,22.518c-.396-.288-.828-.648-1.44-.684-.647-.144-1.943-.432-2.34-.036-.576.252-.792,1.548-.504,1.944 .288.324 1.116.468 2.052.432 .756-.18 2.376-.504 2.772-.828 .288-.288-.216-.612-.54-.828z" fill-rule="evenodd" stroke="#000" stroke-miterlimit="10" stroke-width=".036"/>
 <path d="m150.845,22.626c-.324-.252-.54-.468-1.044-.504-.576-.252-1.62-.216-2.017-.036-.468.18-.647,1.116-.396,1.44 .252.252 1.08.36 1.8.324 .612-.216 1.765-.324 2.088-.612 .145-.216-.143-.468-.431-.612z" fill="#fff" fill-rule="evenodd" stroke="#000" stroke-miterlimit="10" stroke-width=".036"/>
 <path d="m129.893,43.65c-.468-.468-1.116-1.008-1.944-1.224-1.044-.324-2.592-.828-3.384-.396-.792.396-1.403,1.944-1.008,2.7 .288.576 1.62.936 2.88.936 1.26-.108 3.384-.36 4.141-.756 .61-.396-.361-.864-.685-1.26z" fill-rule="evenodd" stroke="#000" stroke-miterlimit="10" stroke-width=".036"/>
 <path d="m129.137,43.722c-.396-.324-.792-.72-1.476-.9-.828-.36-2.305-.576-2.916-.36-.757.216-1.009,1.548-.757,2.052 .288.504 1.513.612 2.557.72 .972-.036 2.52-.36 3.096-.576 .36-.396-.18-.575-.504-.936z" fill="#fff" fill-rule="evenodd" stroke="#000" stroke-miterlimit="10" stroke-width=".036"/>
 <path d="m151.745,36.09c-.576.108-1.477.216-2.124.864-.828.576-2.089,1.62-2.232,2.556-.108.828.864,2.232 1.656,2.412 .611.072 1.691-1.008 2.412-1.872 .647-1.044 1.584-3.168 1.691-3.852 .037-.648-.899-.36-1.403-.108z" fill-rule="evenodd" stroke="#000" stroke-miterlimit="10" stroke-width=".036"/>
 <path d="m151.385,36.738c-.54.108-.972.108-1.584.684-.612.54-1.908,1.404-1.944,2.196-.144.684.648,1.656 1.26,1.8 .433-.036 1.477-.972 2.017-1.692 .468-.864 1.224-2.376 1.296-2.88-.037-.54-.614-.252-1.045-.108z" fill="#fff" fill-rule="evenodd" stroke="#000" stroke-miterlimit="10" stroke-width=".036"/>
 <path d="m145.48,52.506c.216.504.612,1.224 1.332,1.872 .72.54 2.088,1.692 2.988,1.656 .792-.144 1.908-1.512 1.944-2.16-.072-.72-1.297-1.548-2.305-1.944-1.188-.576-3.492-.9-4.14-.828-.718.108-.107.756.181,1.404z" fill-rule="evenodd" stroke="#000" stroke-miterlimit="10" stroke-width=".036"/>
 <path d="m146.236,52.722c.145.396.288.864.973,1.404 .575.468 1.8,1.368 2.556,1.44 .648-.144 1.512-1.116 1.476-1.656-.107-.684-1.296-1.224-2.052-1.62-.899-.432-2.628-.684-3.096-.612-.576.108-.072.504.143,1.044z" fill="#fff" fill-rule="evenodd" stroke="#000" stroke-miterlimit="10" stroke-width=".036"/>
 <path d="m144.473,70.506c.108-.612.324-1.368.216-2.268-.144-.972-.576-2.736-1.151-3.204-.721-.468-2.521-.36-2.881.324-.396.504-.144,1.872.469,2.988 .504,1.08 1.907,2.844 2.556,3.348 .503.324.575-.72.791-1.188z" fill-rule="evenodd" stroke="#000" stroke-miterlimit="10" stroke-width=".036"/>
 <path d="m144.077,69.858c.035-.432.323-1.044.18-1.692-.18-.792-.468-2.412-1.008-2.772-.685-.468-1.872-.288-2.196.252-.324.468.036,1.656.504,2.592 .396.864 1.404,2.16 1.908,2.52 .359.216.431-.504.612-.9z" fill="#fff" fill-rule="evenodd" stroke="#000" stroke-miterlimit="10" stroke-width=".036"/>
 <path d="m119.021,62.046c-.504-.504-1.008-.972-1.908-1.26-1.044-.396-2.592-.828-3.384-.468-.792.396-1.368,1.944-1.044,2.7 .18.648 1.729.936 2.844,1.008 1.152,0 3.456-.432 4.141-.72 .575-.396-.289-.864-.649-1.26z" fill-rule="evenodd" stroke="#000" stroke-miterlimit="10" stroke-width=".036"/>
 <path d="m118.265,62.118c-.324-.396-.756-.756-1.44-.936-.827-.396-2.304-.684-2.916-.432-.72.288-1.079,1.44-.792,2.052 .217.396 1.513.792 2.521.792 .9-.108 2.592-.288 3.132-.54 .359-.288-.181-.648-.505-.936z" fill="#fff" fill-rule="evenodd" stroke="#000" stroke-miterlimit="10" stroke-width=".036"/>
 <path d="m73.841,69.858c-.576.072-1.476.324-2.124.9-.828.576-2.088,1.62-2.232,2.556-.036.864.9,2.16 1.692,2.376 .648,0 1.62-.936 2.376-1.836 .648-1.044 1.584-3.168 1.692-3.852 .036-.756-.9-.288-1.404-.144z" fill-rule="evenodd" stroke="#000" stroke-miterlimit="10" stroke-width=".036"/>
 <path d="m73.48,70.542c-.54-.036-.972.18-1.584.648-.612.54-1.908,1.404-1.944,2.196-.144.684.648,1.656 1.26,1.8 .54-.072 1.404-.9 2.052-1.656 .504-.828 1.152-2.448 1.26-2.916-.035-.432-.611-.323-1.044-.072z" fill="#fff" fill-rule="evenodd" stroke="#000" stroke-miterlimit="10" stroke-width=".036"/>
 <path d="m55.049,76.986c-.396-.504-.9-1.224-1.656-1.584-.9-.576-2.448-1.188-3.24-1.008-.792.144-1.8,1.8-1.512,2.484 .18.684 1.44,1.116 2.664,1.44 1.116.18 3.492.18 4.212,0 .576-.288-.18-.864-.468-1.332z" fill-rule="evenodd" stroke="#000" stroke-miterlimit="10" stroke-width=".036"/>
 <path d="m54.292,76.914c-.324-.36-.648-.936-1.26-1.188-.792-.36-2.088-1.116-2.772-.9-.72.072-1.368,1.404-1.116,1.908 .108.432 1.44.972 2.34,1.188 .864.144 2.7.144 3.168,0 .397-.252-.143-.684-.36-1.008z" fill="#fff" fill-rule="evenodd" stroke="#000" stroke-miterlimit="10" stroke-width=".036"/>
 <path d="m30.029,68.13c.504.216 1.296.54 2.232.576 .864.036 2.664-.18 3.312-.648 .576-.684.576-2.448.144-2.916-.504-.468-1.98-.468-3.024,0-1.152.396-3.312,1.404-3.708,2.052-.54.468.504.648 1.044.936z" fill-rule="evenodd" stroke="#000" stroke-miterlimit="10" stroke-width=".036"/>
 <path d="m30.713,67.842c.324.108.936.432 1.692.432 .792-.036 2.268-.18 2.88-.576 .432-.54.504-1.872.072-2.196-.468-.324-1.764-.288-2.628.108-1.008.324-2.448.972-2.772,1.512-.432.324.324.468.756.72z" fill="#fff" fill-rule="evenodd" stroke="#000" stroke-miterlimit="10" stroke-width=".036"/>
 <path d="m25.133,52.902c-.252-.648-.504-1.368-1.152-2.016-.792-.756-1.908-1.944-2.772-1.908-.972-.072-2.124,1.224-2.196,1.944-.072.648 1.008,1.512 2.124,2.16 1.116.432 3.204,1.296 4.032,1.224 .504-.18.216-.792-.036-1.404z" fill-rule="evenodd" stroke="#000" stroke-miterlimit="10" stroke-width=".036"/>
 <path d="m24.413,52.614c-.216-.54-.324-1.044-.864-1.512-.648-.612-1.728-1.62-2.412-1.656-.792,0-1.656.864-1.62,1.476 .036.576 1.044,1.224 1.908,1.8 .864.468 2.376.828 3.024.936 .396-.108.108-.648-.036-1.044z" fill="#fff" fill-rule="evenodd" stroke="#000" stroke-miterlimit="10" stroke-width=".036"/>
 <path d="m23.909,35.01c-.252.504-.468,1.26-.36,2.268 .072.9.252,2.628.972,3.24 .612.468 2.412.324 2.916-.144 .36-.54.072-2.052-.324-3.024-.504-1.224-1.944-3.024-2.376-3.456-.468-.468-.792.504-.828,1.116z" fill-rule="evenodd" stroke="#000" stroke-miterlimit="10" stroke-width=".036"/>
 <path d="m24.269,35.694c-.216.324-.396.936-.252,1.692 0,.792.324,2.232.828,2.808 .504.432 1.836.252 2.196-.144 .252-.468 0-1.8-.36-2.592-.396-.9-1.404-2.376-1.764-2.628-.468-.396-.504.396-.648.864z" fill="#fff" fill-rule="evenodd" stroke="#000" stroke-miterlimit="10" stroke-width=".036"/>
 <path d="m37.48,29.718c-.216.576-.18,1.332.108,2.268 .252.756.792,2.628 1.62,2.988 .756.396 2.34-.216 2.808-.72 .288-.72-.288-1.872-.9-2.88-.756-1.008-2.412-2.736-3.024-2.952-.647-.288-.575.612-.612,1.296z" fill-rule="evenodd" stroke="#000" stroke-miterlimit="10" stroke-width=".036"/>
 <path d="m37.985,30.294c-.108.396-.18,1.008.072,1.692 .18.684.792,2.196 1.404,2.592 .576.288 1.836-.072 2.124-.54 .18-.54-.432-1.8-.864-2.52-.612-.864-1.872-2.016-2.268-2.196-.504-.288-.432.504-.468.972z" fill="#fff" fill-rule="evenodd" stroke="#000" stroke-miterlimit="10" stroke-width=".036"/>
 <path d="m62.069,26.334c-.504.072-.936.18-1.44.612-.648.396-1.44,1.116-1.548,1.764-.108.576.648,1.44 1.152,1.62 .54,0 1.044-.648 1.656-1.26 .36-.756 1.116-2.16 1.152-2.664-.072-.468-.576-.216-.972-.072z" fill-rule="evenodd" stroke="#000" stroke-miterlimit="10" stroke-width=".036"/>
 <path d="m61.817,26.802c-.324-.036-.684.108-1.08.432-.468.288-1.296,1.08-1.368,1.548-.108.432.468,1.116.9,1.224 .324.036.972-.72 1.404-1.152 .432-.576.72-1.656.864-1.979-.108-.433-.396-.181-.72-.073z" fill="#fff" fill-rule="evenodd" stroke="#000" stroke-miterlimit="10" stroke-width=".036"/>
 <path d="m53.104,32.346c-.504.072-.936.18-1.44.612-.648.396-1.44,1.116-1.548,1.764-.108.576.648,1.44 1.152,1.62 .54,0 1.044-.648 1.656-1.26 .36-.756 1.116-2.16 1.152-2.664-.071-.468-.576-.216-.972-.072z" fill-rule="evenodd" stroke="#000" stroke-miterlimit="10" stroke-width=".036"/>
 <path d="m52.853,32.814c-.324.072-.684.036-1.08.432-.504.288-1.224,1.08-1.332,1.548-.18.432.432,1.116.864,1.224 .324.036.972-.72 1.404-1.152 .432-.648.72-1.692.864-2.016-.108-.36-.396-.144-.72-.036z" fill="#fff" fill-rule="evenodd" stroke="#000" stroke-miterlimit="10" stroke-width=".036"/>
 <path d="m67.757,37.063c-.108.36-.144.936.036,1.584 .216.684.468,1.656 1.044,2.088 .396.144 1.692,0 1.944-.432 .108-.468-.072-1.368-.54-2.016-.54-.756-1.584-1.908-2.016-2.088-.396-.217-.504.395-.468.864z" fill-rule="evenodd" stroke="#000" stroke-miterlimit="10" stroke-width=".036"/>
 <path d="m68.081,37.494c-.108.252-.144.648.036,1.188 .18.468.432,1.44.9,1.8 .324.18 1.332-.036 1.476-.36 0-.396-.18-1.296-.54-1.728-.432-.684-1.26-1.332-1.512-1.548-.396-.252-.324.288-.36.648z" fill="#fff" fill-rule="evenodd" stroke="#000" stroke-miterlimit="10" stroke-width=".036"/>
 <path d="m87.376,46.17c-.504.036-.936.252-1.44.648-.648.432-1.44,1.008-1.548,1.728-.108.54.648,1.512 1.152,1.656 .396,0 1.116-.648 1.62-1.26 .468-.756 1.044-2.16 1.188-2.664-.071-.432-.576-.324-.972-.108z" fill-rule="evenodd" stroke="#000" stroke-miterlimit="10" stroke-width=".036"/>
 <path d="m87.125,46.638c-.324.072-.684.036-1.08.468-.468.324-1.296.972-1.368,1.512-.108.396.468,1.188.9,1.26 .324.036.972-.72 1.404-1.152 .432-.648.72-1.692.864-2.016-.108-.432-.396-.18-.72-.072z" fill="#fff" fill-rule="evenodd" stroke="#000" stroke-miterlimit="10" stroke-width=".036"/>
 <path d="m86.405,30.366c-.108-.432.036-1.044-.252-1.548-.252-.72-.936-1.728-1.368-1.908-.648-.252-1.692.324-1.872.756-.108.432.18,1.188.864,1.872 .432.576 1.908,1.584 2.34,1.764 .396.036.216-.468.288-.936z" fill-rule="evenodd" stroke="#000" stroke-miterlimit="10" stroke-width=".036"/>
 <path d="m86.045,30.006c-.108-.288 0-.72-.216-1.152-.252-.504-.828-1.512-1.188-1.656-.432-.216-1.404.108-1.404.576-.108.36.36,1.044.828,1.62 .324.396 1.404,1.152 1.728,1.296 .216.072.252-.432.252-.684z" fill="#fff" fill-rule="evenodd" stroke="#000" stroke-miterlimit="10" stroke-width=".036"/>
 <path d="m76,24.102c.072-.432.396-.9.396-1.548-.108-.72-.072-1.944-.468-2.304-.432-.468-1.8-.396-2.016-.072-.396.288-.252,1.26 0,2.088 .252.792 1.008,2.16 1.44,2.556 .252.216.469-.396.648-.72z" fill-rule="evenodd" stroke="#000" stroke-miterlimit="10" stroke-width=".036"/>
 <path d="m75.785,23.598c.072-.36.216-.612.288-1.152-.108-.576-.108-1.656-.396-1.98-.36-.288-1.368-.432-1.512-.036-.252.216-.18,1.188.072,1.8 .18.504.72,1.692 1.044,1.908 .144.108.36-.216.504-.54z" fill="#fff" fill-rule="evenodd" stroke="#000" stroke-miterlimit="10" stroke-width=".036"/>
 <path d="m50.621,20.214c-.18-.504-.252-.936-.648-1.44-.468-.54-1.26-1.512-1.8-1.512-.612-.072-1.656.648-1.62,1.188-.144.504.612,1.044 1.296,1.62 .72.396 2.088,1.044 2.7,1.116 .396-.036.144-.684.072-.972z" fill-rule="evenodd" stroke="#000" stroke-miterlimit="10" stroke-width=".036"/>
 <path d="m50.153,19.962c-.144-.324-.18-.684-.504-1.08-.432-.396-1.08-1.332-1.512-1.296-.54-.108-1.224.468-1.224.9-.108.396.648.9 1.152,1.368 .54.432 1.584.72 2.016.864 .324-.072.072-.468.072-.756z" fill="#fff" fill-rule="evenodd" stroke="#000" stroke-miterlimit="10" stroke-width=".036"/>
 <path d="m123.484,21.402c0,.324.181.972.54,1.512 .396.576.937,1.404 1.62,1.656 .612-.036 1.512-.468 1.729-1.008 .035-.54-.576-1.26-1.152-1.764-.72-.648-2.088-1.296-2.556-1.368-.504-.144-.288.504-.181.972z" fill-rule="evenodd" stroke="#000" stroke-miterlimit="10" stroke-width=".036"/>
 <path d="m123.953,21.69c.035.288-.036.612.359,1.116 .288.432.9,1.296 1.44,1.476 .396.144 1.151-.54 1.296-.792 .072-.504-.648-1.044-1.044-1.476-.612-.468-1.584-1.044-1.944-1.044-.431-.108-.143.36-.107.72z" fill="#fff" fill-rule="evenodd" stroke="#000" stroke-miterlimit="10" stroke-width=".036"/>
</svg>
