<?xml version="1.0" encoding="UTF-8"?>
<svg viewBox="0 0 128 128" xmlns="http://www.w3.org/2000/svg">
 <g fill-rule="evenodd" stroke="#000">
  <path d="m12.919 64.117h98.429c0 25.1-3.889 41.833-29.529 58.566h-39.371c-24.227-14.719-29.529-33.466-29.529-58.566h-1e-4z" stroke-width="0"/>
  <g stroke-width="2">
   <path d="m7.9998 113.1h109.19c-9.4475 4.388-9.4475 6.9451-32.758 8.5802h-43.677c-23.69-1.34-23.69-4.1922-32.758-8.5802z" stroke-linejoin="round"/>
   <g fill="#fff" stroke-linecap="round">
    <path d="m42.679 6.1034c18.771 25.914-17.34 27.612 0 54.117"/>
    <path d="m54.888 5.8258c18.771 25.914-17.34 27.612 0 54.117"/>
    <path d="m69.06 5.8258c18.771 25.914-17.34 27.612 0 54.117"/>
    <path d="m81.104 6.2912c18.771 25.914-17.34 27.612 0 54.117"/>
   </g>
  </g>
 </g>
</svg>
